<svg width="222" height="222" viewBox="0 0 222 222" fill="none" xmlns="http://www.w3.org/2000/svg">
<path d="M149.131 125.03L206.412 124.984C210.321 124.98 214.1 123.402 216.896 120.606C226.106 111.396 219.934 95.8983 207.061 95.9088L159.234 95.948C140.39 95.9634 125.337 80.9109 125.352 62.0666L125.392 14.2397C125.402 1.36668 109.904 -4.80529 100.694 4.40428C97.8979 7.20069 96.32 10.9798 96.3168 14.8886L96.27 72.1695C96.2459 101.57 119.73 125.054 149.131 125.03Z" fill="#73FE42"/>
<path d="M125.508 149.041L125.048 206.407C125.017 210.309 123.43 214.072 120.639 216.863C111.326 226.176 95.6571 219.87 95.7615 206.85L96.1437 159.141C96.2956 140.181 81.1193 125.005 62.1594 125.157L14.4501 125.539C1.43038 125.643 -4.87595 109.975 4.43731 100.661C7.22808 97.8706 10.9917 96.2835 14.8931 96.2522L72.2597 95.7926C101.967 95.5546 125.746 119.333 125.508 149.041Z" fill="#73FE42"/>
</svg>
